<svg width="30" height="30" viewBox="0 0 30 30" fill="none" xmlns="http://www.w3.org/2000/svg">
<path d="M26.25 2.91667V20.4167H8.75V2.91667H26.25ZM26.25 0H8.75C7.14583 0 5.83333 1.3125 5.83333 2.91667V20.4167C5.83333 22.0208 7.14583 23.3333 8.75 23.3333H26.25C27.8542 23.3333 29.1667 22.0208 29.1667 20.4167V2.91667C29.1667 1.3125 27.8542 0 26.25 0ZM15.2688 17.5L10.2083 12.3958L12.25 10.3396L15.2688 13.3729L22.75 5.83333L24.7917 7.88958L15.2688 17.5ZM2.91667 5.83333H0V26.25C0 27.8542 1.3125 29.1667 2.91667 29.1667H23.3333V26.25H2.91667V5.83333Z" fill="#4F8FF0"/>
</svg>
