<svg width="17" height="14" viewBox="0 0 17 14" fill="none" xmlns="http://www.w3.org/2000/svg">
<path d="M1.66667 13.3333C1.20833 13.3333 0.815835 13.17 0.489168 12.8433C0.162501 12.5167 -0.000554141 12.1244 1.41483e-06 11.6667V1.66667C1.41483e-06 1.20833 0.163335 0.815835 0.490001 0.489168C0.816668 0.162501 1.20889 -0.000554141 1.66667 1.41483e-06H15C15.4583 1.41483e-06 15.8508 0.163335 16.1775 0.490001C16.5042 0.816668 16.6672 1.20889 16.6667 1.66667V11.6667C16.6667 12.125 16.5033 12.5175 16.1767 12.8442C15.85 13.1708 15.4578 13.3339 15 13.3333H1.66667ZM8.33333 7.5L1.66667 3.33333V11.6667H15V3.33333L8.33333 7.5ZM8.33333 5.83333L15 1.66667H1.66667L8.33333 5.83333ZM1.66667 3.33333V1.66667V11.6667V3.33333Z" fill="#4F8FF0"/>
</svg>
