<svg width="137" height="72" viewBox="0 0 137 72" fill="none" xmlns="http://www.w3.org/2000/svg">
<path d="M4.96094 61.5078H8.10156C8.59375 61.5078 8.84375 61.4688 9.07031 61.375C9.60156 61.1562 10.0078 60.6875 10.0078 60.0312C10.0078 59.3828 9.61719 58.9062 9.07031 58.6797C8.84375 58.5859 8.60156 58.5391 8.09375 58.5391H4.96094V61.5078ZM4.96094 68H3.09375V56.7969H8.32812C9.19531 56.7969 9.76562 56.9453 10.25 57.2266C11.2188 57.75 11.8516 58.7578 11.8516 60.0234C11.8516 61.2578 11.2188 62.2812 10.2422 62.8125C9.75781 63.0859 9.19531 63.2422 8.32812 63.2422H4.96094V68ZM18.8687 56.7969H20.9547L24.0016 62.5391L26.9547 56.7969H29.0406L24.7359 64.8984C24.2047 65.8984 23.8609 66.4922 23.3609 67.0156C22.7828 67.6094 22.0797 68.0234 21.1422 68.0234C20.4781 68.0234 19.8297 67.8125 19.2672 67.4219L20.2203 65.8359C20.5016 66.0391 20.8297 66.1484 21.1656 66.1484C21.8219 66.1484 22.2203 65.7578 22.7281 64.8438C22.7359 64.8125 22.9859 64.3672 22.9859 64.3672L18.8687 56.7969ZM36.6281 56.7969H37.6359L42.4875 62.6328L47.3312 56.7969H48.3469V68H46.4719V60.3516L42.4875 65.2188L38.4953 60.3516V68H36.6281V56.7969ZM56.325 56.7891H65.7938V58.5391H61.9891V68H60.1141V58.5391H56.325V56.7891ZM81.5609 68V60.1797L74.7797 68H73.7641V56.7969H75.6391V64.6094C77.8969 62.0078 80.1547 59.3984 82.4203 56.7969H83.4359V68H81.5609ZM100.773 64.6719C100.773 65.9844 100.117 67.0234 99.1172 67.5703C98.625 67.8438 98.0391 68 97.1641 68H92.0312V56.7969H99.7578V58.5391H93.8984V61.3516H97.1641C98.0391 61.3516 98.625 61.5078 99.1094 61.7891C100.117 62.3281 100.773 63.3984 100.773 64.6719ZM98.9219 64.6719C98.9219 63.9688 98.5 63.4609 97.9375 63.2188C97.7031 63.125 97.4453 63.0781 96.9453 63.0781H93.8984V66.2656H96.9375C97.4531 66.2656 97.7109 66.2188 97.9375 66.1172C98.5078 65.8828 98.9219 65.3672 98.9219 64.6719ZM108.853 56.7969H116.502V58.5312H110.728V60.9922H115.205V62.7109H110.728V66.2656H116.502V68H108.853V56.7969ZM124.097 56.7891H133.566V58.5391H129.761V68H127.886V58.5391H124.097V56.7891Z" fill="white"/>
<mask id="mask0_1_246" style="mask-type:luminance" maskUnits="userSpaceOnUse" x="0" y="0" width="137" height="48">
<path d="M137 0H0V48H137V0Z" fill="white"/>
</mask>
<g mask="url(#mask0_1_246)">
<path d="M0.153499 27.9141C0.397899 27.8561 24.8152 22.0348 43.1998 13.8807C45.2449 12.9737 46.9008 12.436 48.2956 12.1826C46.7329 13.7572 37.54 17.6826 44.882 18.3782C51.6186 19.0171 40.5214 27.0107 35.4343 29.9169C22.0532 34.1596 13.3687 35.8258 13.2126 35.8554L13.3967 36.837C13.4423 36.8283 14.2201 36.6792 15.6276 36.3678C23.0039 34.7353 47.7648 28.622 76.1721 14.6516C80.1558 12.6924 83.4072 11.6059 86.1436 11.2027C85.3414 15.3185 76.0532 24.4199 90.8867 26.7181C104.416 28.8141 77.2846 34.136 67.1729 36.8457C65.7145 37.2366 64.6097 37.5732 64.0327 37.8376C59.5683 39.8853 111.467 38.0434 134.676 37.9501C135.433 37.9768 136.206 37.9921 137 37.9921V36.9932C116.27 36.9932 108.928 27.5135 103.028 19.8965C96.8975 11.9808 92.0551 5.72765 75.7316 13.7552C71.9386 15.6194 68.1041 17.3981 64.2312 19.0901C60.8086 17.8721 58.7358 16.1203 56.9198 14.5826C53.5385 11.7194 51.0952 9.65037 42.9304 13.2724C24.6028 21.4005 0.243734 27.2085 0 27.2661L0.153499 27.9141Z" fill="#FDFDFD"/>
</g>
</svg>
