<svg width="131" height="12" viewBox="0 0 131 12" fill="none" xmlns="http://www.w3.org/2000/svg">
<path d="M1.86719 4.7187H5.00781C5.5 4.7187 5.75 4.6797 5.97656 4.5859C6.50781 4.3671 6.91405 3.8984 6.91405 3.2421C6.91405 2.5937 6.52344 2.1171 5.97656 1.8906C5.75 1.7968 5.50781 1.75 5 1.75H1.86719V4.7187ZM1.86719 11.2109H0V0.00780106H5.23437C6.10156 0.00780106 6.67187 0.1562 7.15625 0.4375C8.12505 0.9609 8.75785 1.9687 8.75785 3.2343C8.75785 4.4687 8.12505 5.4921 7.14845 6.0234C6.66406 6.2968 6.10156 6.4531 5.23437 6.4531H1.86719V11.2109ZM15.775 0.00780106H17.861L20.9079 5.75L23.861 0.00780106H25.9468L21.6422 8.1093C21.111 9.1093 20.7672 9.7031 20.2672 10.2265C19.6891 10.8203 18.986 11.2343 18.0485 11.2343C17.3843 11.2343 16.736 11.0234 16.1735 10.6328L17.1266 9.0468C17.4079 9.25 17.736 9.3593 18.0718 9.3593C18.7281 9.3593 19.1266 8.9687 19.6343 8.0547C19.6421 8.0234 19.8922 7.5781 19.8922 7.5781L15.775 0.00780106ZM33.5344 0.00780106H34.5421L39.3937 5.8437L44.2374 0.00780106H45.2532V11.2109H43.3782V3.5625L39.3937 8.4297L35.4016 3.5625V11.2109H33.5344V0.00780106ZM53.2313 0H62.7001V1.75H58.8954V11.2109H57.0204V1.75H53.2313V0ZM78.4671 11.2109V3.3906L71.686 11.2109H70.6703V0.00780106H72.5453V7.8203C74.8031 5.2187 77.061 2.6093 79.3266 0.00780106H80.3421V11.2109H78.4671ZM97.6793 7.8828C97.6793 9.1953 97.0233 10.2343 96.0235 10.7812C95.5312 11.0547 94.9454 11.2109 94.0704 11.2109H88.9374V0.00780106H96.664V1.75H90.8046V4.5625H94.0704C94.9454 4.5625 95.5312 4.7187 96.0156 5C97.0232 5.539 97.6793 6.6093 97.6793 7.8828ZM95.8281 7.8828C95.8281 7.1797 95.4062 6.6718 94.8438 6.4297C94.6094 6.3359 94.3515 6.289 93.8515 6.289H90.8046V9.4765H93.8438C94.3594 9.4765 94.6171 9.4297 94.8438 9.3281C95.414 9.0937 95.8281 8.5781 95.8281 7.8828ZM105.759 0.00780106H113.408V1.7421H107.634V4.2031H112.111V5.9218H107.634V9.4765H113.408V11.2109H105.759V0.00780106ZM121.003 0H130.472V1.75H126.667V11.2109H124.792V1.75H121.003V0Z" fill="white"/>
</svg>
